<svg width="24" height="24" viewBox="0 0 24 24" fill="none" xmlns="http://www.w3.org/2000/svg">
<path d="M14.3296 16.0481C12.6412 17.843 9.62385 17.1305 8.9114 14.7687C8.19928 12.4079 10.3191 10.1531 12.7188 10.7174C15.4448 8.38584 19.6798 4.77876 22.1328 2.78109C22.9882 2.08406 23.7213 2.87114 23.0549 3.70321C21.1098 6.13368 17.4679 10.3996 15.1158 13.1353C15.3423 14.1198 15.1167 15.2115 14.3296 16.0481ZM20.285 11.9987C20.285 11.2914 19.5141 10.8471 18.9008 11.2006C18.2874 11.5542 18.2874 12.4431 18.9008 12.7967C19.5141 13.1504 20.285 12.7059 20.285 11.9987ZM6.45323 8.31023C6.45323 7.60298 5.68237 7.15856 5.06901 7.51218C4.45565 7.86581 4.45565 8.7546 5.06901 9.10828C5.68237 9.46195 6.45323 9.01743 6.45323 8.31023ZM5.53115 11.9987C5.53115 11.2914 4.76029 10.8471 4.14693 11.2006C3.53357 11.5542 3.53353 12.4431 4.14693 12.7967C4.76034 13.1504 5.53115 12.7059 5.53115 11.9987ZM9.2196 5.54385C9.2196 4.83665 8.44874 4.39223 7.83538 4.74581C7.22203 5.09939 7.22203 5.98828 7.83538 6.3419C8.44874 6.69553 9.2196 6.25106 9.2196 5.54385ZM16.5965 5.54385C16.5965 4.83665 15.8257 4.39223 15.2123 4.74581C14.5989 5.09939 14.5989 5.98828 15.2123 6.3419C15.8257 6.69553 16.5965 6.25106 16.5965 5.54385ZM12.9081 4.62173C12.9081 3.91453 12.1372 3.4701 11.5238 3.82373C10.9105 4.17735 10.9105 5.06615 11.5238 5.41978C12.1372 5.7734 12.9081 5.32898 12.9081 4.62173ZM20.866 9.54534C21.9546 13.5745 20.2794 18.2071 16.0499 20.2814C9.70021 23.3955 2.31581 18.4314 2.78985 11.3674C3.26367 4.30424 11.242 0.390604 17.1174 4.33818L19.4091 2.58651C12.1911 -3.12385 1.45438 1.14618 0.129604 10.2542C-1.19527 19.3622 7.87645 26.5389 16.4194 23.1413C23.1219 20.4757 25.5903 12.8557 22.8572 6.93829L20.866 9.54534Z" fill="white"/>
</svg>
