<svg width="47" height="47" viewBox="0 0 47 47" fill="none" xmlns="http://www.w3.org/2000/svg">
<path d="M35.208 8.12402C36.07 8.12402 36.8966 8.46643 37.5061 9.07593C38.1156 9.68542 38.458 10.5121 38.458 11.374C38.458 12.236 38.1156 13.0626 37.5061 13.6721C36.8966 14.2816 36.07 14.624 35.208 14.624C34.3461 14.624 33.5194 14.2816 32.9099 13.6721C32.3004 13.0626 31.958 12.236 31.958 11.374C31.958 10.5121 32.3004 9.68542 32.9099 9.07593C33.5194 8.46643 34.3461 8.12402 35.208 8.12402Z" stroke="black" stroke-width="3.25" stroke-linecap="round" stroke-linejoin="round"/>
<path d="M3.30163 21.4359C1.12847 23.8626 1.08297 27.5242 3.0763 30.1026C6.94815 35.1288 11.4531 39.6337 16.4793 43.5056C19.0576 45.4989 22.7193 45.4534 25.146 43.2802C31.7057 37.4126 37.8696 31.1169 43.5973 24.4346C44.1756 23.7699 44.5316 22.9412 44.6156 22.0642C44.971 18.1729 45.7055 6.96256 42.6613 3.92056C39.6171 0.878565 28.409 1.6109 24.5176 1.9684C23.6407 2.05242 22.8119 2.40846 22.1473 2.98673C15.465 8.71369 9.16937 14.8769 3.30163 21.4359Z" stroke="black" stroke-width="3.25" stroke-linecap="round" stroke-linejoin="round"/>
<path d="M27.1653 24.0856C27.2129 23.2146 27.4556 21.6264 26.1339 20.4174M26.1339 20.4174C25.6296 19.9792 25.0424 19.6469 24.4071 19.4403C21.6836 18.4804 18.3404 21.6914 20.7064 24.6316C21.9783 26.2133 22.9598 26.6986 22.8644 28.4926C22.7994 29.7536 21.5601 31.0731 19.9264 31.5758C18.5073 32.0134 16.9408 31.4349 15.9506 30.3278C14.7394 28.9758 14.8629 27.7018 14.8521 27.1471M26.1339 20.4174L27.6246 18.9268M16.0546 30.4968L14.6398 31.9116" stroke="black" stroke-width="3.25" stroke-linecap="round" stroke-linejoin="round"/>
</svg>
