<svg width="70" height="70" viewBox="0 0 70 70" fill="none" xmlns="http://www.w3.org/2000/svg">
<path fill-rule="evenodd" clip-rule="evenodd" d="M28.8995 10.8473C31.577 6.08734 38.4265 6.08734 41.1005 10.8473L60.6305 45.5673C63.2555 50.2363 59.885 55.9973 54.5335 55.9973H15.47C10.115 55.9973 6.74446 50.2363 9.36946 45.5673L28.8995 10.8473ZM38.5 45.5008C38.5 46.4291 38.1312 47.3193 37.4748 47.9757C36.8185 48.6321 35.9282 49.0008 35 49.0008C34.0717 49.0008 33.1815 48.6321 32.5251 47.9757C31.8687 47.3193 31.5 46.4291 31.5 45.5008C31.5 44.5726 31.8687 43.6824 32.5251 43.026C33.1815 42.3696 34.0717 42.0008 35 42.0008C35.9282 42.0008 36.8185 42.3696 37.4748 43.026C38.1312 43.6824 38.5 44.5726 38.5 45.5008ZM35 17.5008C34.0717 17.5008 33.1815 17.8696 32.5251 18.526C31.8687 19.1823 31.5 20.0726 31.5 21.0008V31.5008C31.5 32.4291 31.8687 33.3193 32.5251 33.9757C33.1815 34.6321 34.0717 35.0008 35 35.0008C35.9282 35.0008 36.8185 34.6321 37.4748 33.9757C38.1312 33.3193 38.5 32.4291 38.5 31.5008V21.0008C38.5 20.0726 38.1312 19.1823 37.4748 18.526C36.8185 17.8696 35.9282 17.5008 35 17.5008Z" fill="white"/>
</svg>
