<svg width="52" height="52" viewBox="0 0 52 52" fill="none" xmlns="http://www.w3.org/2000/svg">
<path d="M26.0042 30.3398V26.7864M26.0042 30.3398C22.3931 30.3398 18.7827 29.9454 15.1731 29.1568M26.0042 30.3398C29.6154 30.3398 33.2265 29.9454 36.8376 29.1568M15.1731 29.1568C12.351 28.5342 9.58107 27.6954 6.88774 26.6478C5.78274 26.2231 5.23024 26.0086 4.85107 25.5211C4.22274 24.7108 4.33757 23.5819 4.33757 22.6178C4.33757 19.9463 4.33757 16.4406 4.98757 15.7429C6.22257 14.4213 8.57774 15.6389 9.94924 16.0831C20.6526 19.5541 31.3559 19.5541 42.0592 16.0831C43.4286 15.6389 45.7859 14.4234 47.0187 15.7429C47.6687 16.4406 47.6687 19.9463 47.6687 22.6178C47.6687 23.9568 47.6687 24.6263 47.3762 25.1809C46.9212 26.0303 45.9679 26.3228 45.1207 26.6499C42.428 27.696 39.6588 28.5355 36.8376 29.1568M15.1731 29.1568L15.1709 25.5991M36.8376 29.1568V25.5991M41.1709 41.1883C31.0598 44.0815 20.9487 44.0815 10.8376 41.1883" stroke="black" stroke-width="3.25" stroke-linecap="round" stroke-linejoin="round"/>
<path d="M41.5783 6.49582C40.3303 9.33632 39.1798 14.207 39.1798 16.4408M10.4346 6.49365C11.6848 9.33415 12.8331 14.2048 12.8331 16.4387M11.6999 33.6052C10.7466 36.5973 8.23542 42.5123 8.67742 45.5045M40.3324 33.6052C41.2836 36.5973 43.7948 42.5123 43.3549 45.5045" stroke="black" stroke-width="3.25" stroke-linecap="round" stroke-linejoin="round"/>
</svg>
