<svg width="20" height="20" viewBox="0 0 20 20" fill="none" xmlns="http://www.w3.org/2000/svg">
<g clip-path="url(#clip0_345_505)">
<path d="M15.2742 0H4.67578C2.09342 0 0 2.09342 0 4.67578V15.2742C0 17.8566 2.09342 19.95 4.67578 19.95H15.2742C17.8566 19.95 19.95 17.8566 19.95 15.2742V4.67578C19.95 2.09342 17.8566 0 15.2742 0Z" fill="url(#paint0_radial_345_505)"/>
<path d="M15.2742 0H4.67578C2.09342 0 0 2.09342 0 4.67578V15.2742C0 17.8566 2.09342 19.95 4.67578 19.95H15.2742C17.8566 19.95 19.95 17.8566 19.95 15.2742V4.67578C19.95 2.09342 17.8566 0 15.2742 0Z" fill="url(#paint1_radial_345_505)"/>
<path d="M9.97568 2.18213C7.85926 2.18213 7.5936 2.1914 6.7624 2.2292C5.93276 2.26723 5.36645 2.39854 4.87097 2.59126C4.35835 2.79029 3.92358 3.05658 3.49045 3.48987C3.05692 3.92308 2.79064 4.35785 2.59098 4.87024C2.39772 5.36587 2.26625 5.93242 2.22892 6.76167C2.19175 7.59294 2.18201 7.85868 2.18201 9.97518C2.18201 12.0917 2.19136 12.3565 2.22908 13.1877C2.26726 14.0173 2.39857 14.5836 2.59114 15.0791C2.79033 15.5917 3.05661 16.0265 3.4899 16.4596C3.92296 16.8932 4.35773 17.1601 4.86996 17.3591C5.36582 17.5518 5.93222 17.6831 6.7617 17.7212C7.59298 17.7589 7.85841 17.7682 9.97474 17.7682C12.0914 17.7682 12.3562 17.7589 13.1874 17.7212C14.017 17.6831 14.584 17.5518 15.0798 17.3591C15.5922 17.1601 16.0264 16.8932 16.4593 16.4596C16.8929 16.0265 17.1591 15.5917 17.3588 15.0793C17.5504 14.5836 17.6819 14.0172 17.7209 13.1878C17.7582 12.3566 17.7679 12.0917 17.7679 9.97518C17.7679 7.85868 17.7582 7.5931 17.7209 6.76182C17.6819 5.93218 17.5504 5.36595 17.3588 4.87047C17.1591 4.35785 16.8929 3.92308 16.4593 3.48987C16.0259 3.05642 15.5924 2.79014 15.0794 2.59134C14.5826 2.39854 14.0159 2.26715 13.1863 2.2292C12.355 2.1914 12.0904 2.18213 9.97326 2.18213H9.97568ZM9.27657 3.5865C9.4841 3.58619 9.71563 3.5865 9.97568 3.5865C12.0565 3.5865 12.303 3.59398 13.1247 3.63131C13.8846 3.66607 14.297 3.79301 14.5717 3.8997C14.9354 4.04091 15.1946 4.20978 15.4672 4.48261C15.74 4.75537 15.9088 5.01511 16.0504 5.3788C16.1571 5.65312 16.2842 6.06552 16.3188 6.82534C16.3561 7.64687 16.3642 7.8936 16.3642 9.97338C16.3642 12.0532 16.3561 12.3 16.3188 13.1214C16.284 13.8812 16.1571 14.2936 16.0504 14.568C15.9092 14.9317 15.74 15.1907 15.4672 15.4633C15.1945 15.7361 14.9355 15.9048 14.5717 16.0461C14.2973 16.1533 13.8846 16.2799 13.1247 16.3147C12.3032 16.352 12.0565 16.3601 9.97568 16.3601C7.8948 16.3601 7.64815 16.352 6.82669 16.3147C6.06688 16.2796 5.65448 16.1527 5.37954 16.046C5.01592 15.9047 4.7561 15.7359 4.48335 15.4631C4.21059 15.1904 4.0418 14.9313 3.9002 14.5674C3.79351 14.293 3.66641 13.8806 3.63181 13.1208C3.59448 12.2993 3.587 12.0525 3.587 9.97144C3.587 7.89032 3.59448 7.64492 3.63181 6.82339C3.66657 6.06357 3.79351 5.65117 3.9002 5.37647C4.04149 5.01277 4.21059 4.75303 4.48343 4.48028C4.75626 4.20752 5.01592 4.03865 5.37962 3.89713C5.65432 3.78997 6.06688 3.66334 6.82669 3.62843C7.5456 3.59593 7.82419 3.58619 9.27657 3.58455V3.5865ZM14.1356 4.88044C13.6193 4.88044 13.2004 5.29893 13.2004 5.81529C13.2004 6.33157 13.6193 6.75045 14.1356 6.75045C14.6518 6.75045 15.0707 6.33157 15.0707 5.81529C15.0707 5.299 14.6518 4.88013 14.1356 4.88013V4.88044ZM9.97568 5.9731C7.76559 5.9731 5.97368 7.76501 5.97368 9.97518C5.97368 12.1853 7.76559 13.9764 9.97568 13.9764C12.1858 13.9764 13.9771 12.1853 13.9771 9.97518C13.9771 7.76509 12.1857 5.9731 9.97552 5.9731H9.97568ZM9.97568 7.37747C11.4103 7.37747 12.5734 8.54041 12.5734 9.97518C12.5734 11.4098 11.4103 12.5729 9.97568 12.5729C8.54107 12.5729 7.37805 11.4098 7.37805 9.97518C7.37805 8.54041 8.54099 7.37747 9.97568 7.37747Z" fill="white"/>
</g>
<defs>
<radialGradient id="paint0_radial_345_505" cx="0" cy="0" r="1" gradientUnits="userSpaceOnUse" gradientTransform="translate(5.29922 21.4865) rotate(-90) scale(19.7719 18.3895)">
<stop stop-color="#FFDD55"/>
<stop offset="0.1" stop-color="#FFDD55"/>
<stop offset="0.5" stop-color="#FF543E"/>
<stop offset="1" stop-color="#C837AB"/>
</radialGradient>
<radialGradient id="paint1_radial_345_505" cx="0" cy="0" r="1" gradientUnits="userSpaceOnUse" gradientTransform="translate(-3.3417 1.4371) rotate(78.681) scale(8.83816 36.4312)">
<stop stop-color="#3771C8"/>
<stop offset="0.128" stop-color="#3771C8"/>
<stop offset="1" stop-color="#6600FF" stop-opacity="0"/>
</radialGradient>
<clipPath id="clip0_345_505">
<rect width="19.95" height="19.95" fill="white"/>
</clipPath>
</defs>
</svg>
