<svg width="22" height="22" viewBox="0 0 22 22" fill="none" xmlns="http://www.w3.org/2000/svg">
<path d="M15.052 0L16.018 0.261C17.1994 0.580679 18.2763 1.2045 19.1413 2.07024C20.0064 2.93598 20.6293 4.01338 20.948 5.195L21.208 6.16L19.278 6.681L19.017 5.716C18.7893 4.87197 18.3442 4.10241 17.7262 3.48407C17.1082 2.86573 16.3389 2.42023 15.495 2.192L14.53 1.93L15.052 0ZM2.89394e-05 0.213H8.58003L10.067 6.903L8.20703 8.763C9.30066 10.465 10.7477 11.9118 12.45 13.005L14.31 11.146L21 12.633V21.213H20C16.1504 21.2196 12.3814 20.1094 9.15003 18.017C6.76725 16.475 4.73807 14.4458 3.19603 12.063C1.10365 8.8316 -0.00653503 5.06267 2.89394e-05 1.213V0.213ZM2.02703 2.213C2.19554 5.33291 3.17776 8.35438 4.87603 10.977C6.26435 13.122 8.09107 14.9487 10.236 16.337C12.8586 18.0353 15.8801 19.0175 19 19.186V14.237L14.947 13.337L12.773 15.512L12.11 15.135C9.59267 13.7045 7.50857 11.6204 6.07803 9.103L5.70103 8.44L7.87603 6.266L6.97603 2.213H2.02703ZM14.138 3.378L15.104 3.639C15.6947 3.79884 16.2332 4.11075 16.6657 4.54362C17.0982 4.97649 17.4097 5.51519 17.569 6.106L17.829 7.071L15.899 7.592L15.638 6.627C15.5696 6.37378 15.436 6.14292 15.2506 5.95745C15.0651 5.77198 14.8342 5.63839 14.581 5.57L13.616 5.309L14.138 3.378Z" fill="#BE0002"/>
</svg>
