<svg width="52" height="52" viewBox="0 0 52 52" fill="none" xmlns="http://www.w3.org/2000/svg">
<path d="M17.3334 21.6667V15.1667C17.3334 10.3783 21.2117 6.5 26 6.5C30.7884 6.5 34.6667 10.3783 34.6667 15.1667V21.6667M26 32.5C26.5747 32.5 27.1258 32.2717 27.5321 31.8654C27.9384 31.4591 28.1667 30.908 28.1667 30.3333C28.1667 29.7587 27.9384 29.2076 27.5321 28.8013C27.1258 28.3949 26.5747 28.1667 26 28.1667C25.4254 28.1667 24.8743 28.3949 24.468 28.8013C24.0616 29.2076 23.8334 29.7587 23.8334 30.3333C23.8334 30.908 24.0616 31.4591 24.468 31.8654C24.8743 32.2717 25.4254 32.5 26 32.5ZM26 32.5V39M14.3 21.6667H37.7C39.6067 21.6667 41.1667 23.2267 41.1667 25.1333V40.3C41.1667 43.16 38.8267 45.5 35.9667 45.5H16.0334C13.1734 45.5 10.8334 43.16 10.8334 40.3V25.1333C10.8334 23.2267 12.3934 21.6667 14.3 21.6667Z" stroke="black" stroke-width="3.25" stroke-miterlimit="10" stroke-linecap="round" stroke-linejoin="round"/>
</svg>
